<svg version="1.2" xmlns="http://www.w3.org/2000/svg" viewBox="0 0 741 447" width="741" height="447">
	<title>New Project</title>
	<style>
		.s0 { fill: #ffffff } 
	</style>
	<path id="A pollo  " class="s0" aria-label="A pollo 
"  d="m133.1 232.9h43.4l-15.8-47.6q-1.4-3.8-3.1-8.8-1.5-5-2.9-10.9-1.4 6-3 11.1-1.5 5-2.9 8.8zm37.2-96.5l57 155.6h-23.5q-3.9 0-6.4-1.9-2.5-2.1-3.7-5.2l-9.8-29.7h-58.3l-9.8 29.7q-1.1 2.7-3.6 5-2.5 2.1-6.3 2.1h-23.7l57.1-155.6zm135.5 77.9v48.5q4 4.8 8.5 6.8 4.6 1.9 9.9 1.9 5 0 9.1-2 4.2-2.1 7.1-6.4 3-4.4 4.6-11.1 1.6-6.8 1.6-16.1 0-9.2-1.4-15.7-1.3-6.4-3.8-10.4-2.4-3.9-5.9-5.6-3.6-1.9-7.9-1.9-7.4 0-12.4 3.1-4.9 3-9.4 8.9zm-3.7-27.7l2.1 9.3q3.1-3.6 6.7-6.7 3.5-3.1 7.5-5.2 4.1-2.3 8.7-3.4 4.6-1.3 10.1-1.3 8.3 0 15.3 3.8 7 3.8 12.1 11.1 5 7.2 7.8 17.7 2.9 10.5 2.9 24 0 12.4-3.3 23.1-3.1 10.5-8.9 18.2-5.9 7.7-14.1 12.1-8.2 4.3-18.3 4.3-8.4 0-14.4-2.7-5.8-2.7-10.5-7.3v44.1h-27.8v-146.3h17.2q5.2 0 6.9 5.2zm137.8-6.9q11.7 0 21.3 4 9.6 3.9 16.4 11.3 6.9 7.3 10.6 17.8 3.7 10.6 3.7 23.7 0 13.2-3.7 23.9-3.7 10.5-10.6 17.9-6.8 7.4-16.4 11.3-9.6 4-21.3 4-11.8 0-21.4-4-9.6-3.9-16.4-11.3-6.9-7.4-10.7-17.9-3.8-10.7-3.8-23.9 0-13.1 3.8-23.7 3.8-10.5 10.7-17.8 6.8-7.4 16.4-11.3 9.6-4 21.4-4zm0 91.7q11.9 0 17.7-8.7 5.7-8.8 5.7-26 0-17.2-5.7-25.9-5.8-8.8-17.7-8.8-12.2 0-17.9 8.8-5.7 8.7-5.7 25.9 0 17.2 5.7 26 5.7 8.7 17.9 8.7zm69.8-139.3h27.8v159.9h-27.8zm51.1 0h27.8v159.9h-27.8zm97.9 47.6q11.7 0 21.2 4 9.6 4 16.4 11.4 6.9 7.3 10.6 17.8 3.8 10.5 3.8 23.7 0 13.2-3.8 23.8-3.7 10.5-10.6 17.9-6.8 7.4-16.4 11.4-9.5 3.9-21.2 3.9-11.8 0-21.5-3.9-9.6-4-16.4-11.4-6.9-7.4-10.7-17.9-3.7-10.6-3.7-23.8 0-13.2 3.7-23.7 3.8-10.5 10.7-17.8 6.8-7.4 16.4-11.4 9.7-4 21.5-4zm0 91.7q11.9 0 17.6-8.7 5.7-8.8 5.7-26 0-17.2-5.7-25.9-5.7-8.8-17.6-8.8-12.2 0-18 8.8-5.7 8.7-5.7 25.9 0 17.2 5.7 26 5.8 8.7 18 8.7z"/>
	<path id="Shape 1" class="s0" d="m219 184c0 0-30.2-113-65-113-34.8 0-65 112-65 112 0 0-25.6-109 65-177 0 0 82.5 48.8 65 178z"/>
	<path id="Shape 2" class="s0" d="m107 310c0 0 3.7 40 10 48 0 0-23.2 5.1-63 24v-72z"/>
	<path id="Shape 2 copy" class="s0" d="m201 310c0 0-3.7 40-10 48 0 0 23.2 5.1 63 24v-72z"/>
	<path id="Shape 3" class="s0" d="m119 362h68c0 0 10.5 35.8-34 80 0 0-35.5-24.7-34-80z"/>
</svg>