<svg version="1.2" xmlns="http://www.w3.org/2000/svg" viewBox="0 0 1300 447" width="1300" height="447">
	<title>New Project</title>
	<style>
		.s0 { fill: #ffffff } 
		.s1 { fill: #ffb300 } 
	</style>
	<path id="A pollo CMS " class="s0" aria-label="A pollo CMS
"  d="m131.1 234.9h43.4l-15.8-47.6q-1.4-3.8-3.1-8.8-1.5-5-2.9-10.9-1.4 6-3 11.1-1.5 5-2.9 8.8zm37.2-96.5l57 155.6h-23.5q-3.9 0-6.4-1.9-2.5-2.1-3.7-5.2l-9.8-29.7h-58.3l-9.8 29.7q-1.1 2.7-3.6 5-2.5 2.1-6.3 2.1h-23.7l57.1-155.6zm135.5 77.9v48.5q4 4.8 8.5 6.8 4.6 1.9 9.9 1.9 5 0 9.1-2 4.2-2.1 7.1-6.4 3-4.4 4.6-11.1 1.6-6.8 1.6-16.1 0-9.2-1.4-15.7-1.3-6.4-3.8-10.4-2.4-3.9-5.9-5.6-3.6-1.9-7.9-1.9-7.4 0-12.4 3.1-4.9 3-9.4 8.9zm-3.7-27.7l2.1 9.3q3.1-3.6 6.7-6.7 3.5-3.1 7.5-5.2 4.1-2.3 8.7-3.4 4.6-1.3 10.1-1.3 8.3 0 15.3 3.8 7 3.8 12.1 11.1 5 7.2 7.8 17.7 2.9 10.5 2.9 24 0 12.4-3.3 23.1-3.1 10.5-8.9 18.2-5.9 7.7-14.1 12.1-8.2 4.3-18.3 4.3-8.4 0-14.4-2.7-5.8-2.7-10.5-7.3v44.1h-27.8v-146.3h17.2q5.2 0 6.9 5.2zm137.8-6.9q11.7 0 21.3 4 9.6 3.9 16.4 11.3 6.9 7.3 10.6 17.8 3.7 10.6 3.7 23.7 0 13.2-3.7 23.9-3.7 10.5-10.6 17.9-6.8 7.4-16.4 11.3-9.6 4-21.3 4-11.8 0-21.4-4-9.6-3.9-16.4-11.3-6.9-7.4-10.7-17.9-3.8-10.7-3.8-23.9 0-13.1 3.8-23.7 3.8-10.5 10.7-17.8 6.8-7.4 16.4-11.3 9.6-4 21.4-4zm0 91.7q11.9 0 17.7-8.7 5.7-8.8 5.7-26 0-17.2-5.7-25.9-5.8-8.8-17.7-8.8-12.2 0-17.9 8.8-5.7 8.7-5.7 25.9 0 17.2 5.7 26 5.7 8.7 17.9 8.7zm69.8-139.3h27.8v159.9h-27.8zm51.1 0h27.8v159.9h-27.8zm97.9 47.6q11.7 0 21.2 4 9.6 4 16.4 11.4 6.9 7.3 10.6 17.8 3.8 10.5 3.8 23.7 0 13.2-3.8 23.8-3.7 10.5-10.6 17.9-6.8 7.4-16.4 11.4-9.5 3.9-21.2 3.9-11.8 0-21.5-3.9-9.6-4-16.4-11.4-6.9-7.4-10.7-17.9-3.7-10.6-3.7-23.8 0-13.2 3.7-23.7 3.8-10.5 10.7-17.8 6.8-7.4 16.4-11.4 9.7-4 21.5-4zm0 91.7q11.9 0 17.6-8.7 5.7-8.8 5.7-26 0-17.2-5.7-25.9-5.7-8.8-17.6-8.8-12.2 0-18 8.8-5.7 8.7-5.7 25.9 0 17.2 5.7 26 5.8 8.7 18 8.7zm220.7-17.7q2.5 0 4.2 2l12 13.6q-8.8 12-22 18.2-13.1 6.2-31.3 6.2-16.4 0-29.5-5.9-13.1-6-22.3-16.6-9.1-10.6-14.1-25.2-4.9-14.6-4.9-31.8 0-11.6 2.3-22 2.4-10.5 7-19.3 4.5-8.8 10.9-15.9 6.4-7.1 14.5-12 8-5.1 17.5-7.6 9.6-2.7 20.3-2.7 8.1 0 15.3 1.5 7.2 1.5 13.5 4.2 6.2 2.6 11.4 6.5 5.4 3.8 9.6 8.3l-10.2 14.8q-0.9 1.4-2.3 2.4-1.4 1.1-3.8 1.1-2.4 0-4.9-1.8-2.5-1.8-6.1-4.1-3.5-2.2-9-4.1-5.3-1.8-13.6-1.8-9.1 0-16.8 3.5-7.6 3.6-13.2 10.3-5.4 6.7-8.4 16.5-3.1 9.7-3.1 22.2 0 12.5 3.3 22.4 3.3 9.7 8.9 16.5 5.8 6.7 13.3 10.3 7.7 3.4 16.3 3.4 5.2 0 9.3-0.5 4.2-0.6 7.8-1.8 3.6-1.3 6.7-3.4 3.2-2 6.5-5.1 1.1-1 2.3-1.6 1.2-0.7 2.6-0.7zm171.5-117.3h23v155.6h-26.7v-95.5q0-3 0.1-6.5 0.2-3.4 0.6-7l-41.9 84.5q-3.4 6.9-10.5 6.9h-4.3q-3.5 0-6.2-1.7-2.7-1.8-4.3-5.2l-42.1-84.8q0.4 3.8 0.6 7.3 0.2 3.5 0.2 6.5v95.5h-26.7v-155.6h22.9q1.9 0 3.5 0.1 1.5 0.1 2.6 0.6 1.2 0.5 2.1 1.5 1 1 1.9 2.8l40.9 83q1.9 3.8 3.5 7.8 1.7 3.9 3.3 8.1 1.5-4.3 3.1-8.3 1.7-4.1 3.6-7.9l40.6-82.7q0.9-1.8 1.9-2.8 1-1 2.1-1.5 1.2-0.5 2.7-0.6 1.5-0.1 3.5-0.1zm140.1 14.7l-7.4 15.1q-1.4 2.5-3 3.7-1.4 1-3.7 1-2.2 0-4.8-1.6-2.5-1.7-6-3.6-3.4-2-7.8-3.6-4.4-1.7-10.4-1.7-10.5 0-15.7 5.1-5.3 4.9-5.3 12.9 0 5.2 2.9 8.6 2.9 3.3 7.5 5.8 4.8 2.5 10.7 4.4 6 1.9 12.2 4.3 6.2 2.2 12.2 5.4 5.9 3.1 10.6 7.8 4.7 4.7 7.5 11.6 2.9 6.7 2.9 16.5 0 10.6-3.5 19.9-3.4 9.3-10 16.2-6.5 6.9-16.2 10.9-9.5 3.9-21.7 3.9-7 0-13.9-1.5-6.9-1.5-13.3-4.2-6.4-2.6-12-6.4-5.7-3.7-9.9-8.4l8.9-15.2q1.1-1.7 2.9-2.8 1.8-1.2 3.8-1.2 2.7 0 5.8 2.2 3 2.1 6.9 4.7 3.9 2.6 9.1 4.7 5.2 2.2 12.5 2.2 10.5 0 16.3-5.2 5.8-5.1 5.8-15.3 0-5.9-2.9-9.6-2.8-3.6-7.4-6.1-4.7-2.4-10.6-4.1-6-1.9-12.2-4-6.3-2.2-12.2-5.2-5.9-3-10.6-7.9-4.6-4.9-7.5-12.2-2.9-7.3-2.9-18.2 0-8.6 3.3-16.8 3.2-8.1 9.4-14.5 6.3-6.3 15.3-10.2 9.2-3.8 21-3.8 13.2 0 24.4 4.4 11.3 4.3 19 12z"/>
	<path id="Shape 1" class="s1" d="m219 184c0 0-30.2-113-65-113-34.8 0-65 112-65 112 0 0-25.6-109 65-177 0 0 82.5 48.8 65 178z"/>
	<path id="Shape 2" class="s1" d="m107 310c0 0 3.7 40 10 48 0 0-23.2 5.1-63 24v-72z"/>
	<path id="Shape 2 copy" class="s1" d="m201 310c0 0-3.7 40-10 48 0 0 23.2 5.1 63 24v-72z"/>
	<path id="Shape 3" class="s1" d="m119 362h68c0 0 10.5 35.8-34 80 0 0-35.5-24.7-34-80z"/>
</svg>