<svg version="1.2" xmlns="http://www.w3.org/2000/svg" viewBox="0 0 309 447" width="309" height="447">
	<title>New Project</title>
	<style>
		.s0 { fill: #000000 } 
		.s1 { fill: #ffb300 } 
	</style>
	<path id="A  " class="s0" aria-label="A 
"  d="m133.1 232.9h43.4l-15.8-47.6q-1.4-3.8-3.1-8.8-1.5-5-2.9-10.9-1.4 6-3 11.1-1.5 5-2.9 8.8zm37.2-96.5l57 155.6h-23.5q-3.9 0-6.4-1.9-2.5-2.1-3.7-5.2l-9.8-29.7h-58.3l-9.8 29.7q-1.1 2.7-3.6 5-2.5 2.1-6.3 2.1h-23.7l57.1-155.6z"/>
	<path id="Shape 1" class="s1" d="m219 184c0 0-30.2-113-65-113-34.8 0-65 112-65 112 0 0-25.6-109 65-177 0 0 82.5 48.8 65 178z"/>
	<path id="Shape 2" class="s1" d="m107 310c0 0 3.7 40 10 48 0 0-23.2 5.1-63 24v-72z"/>
	<path id="Shape 2 copy" class="s1" d="m201 310c0 0-3.7 40-10 48 0 0 23.2 5.1 63 24v-72z"/>
	<path id="Shape 3" class="s1" d="m119 362h68c0 0 10.5 35.8-34 80 0 0-35.5-24.7-34-80z"/>
</svg>